# xmcd CD database file
# Copyright (C) 1993-1998 Ti Kan
#
# Track frame offsets:
#	150
#	21134
#	32111
#	44242
#	56283
#	67551
#	84003
#	94258
#	106692
#	116874
#	129510
#	142142
#	151587
#	163907
#
# Disc length: 2345 seconds
#
# Revision: 1
# Processed by: cddbd v1.4b41PL1 Copyright (c) Steve Scherf et al.
# Submitted via: NotifyCDPlayer(CDDB) 1.51.2
#
DISCID=b009270e
DTITLE=Various Artist - Aint Got No I Got Life
DYEAR=1900
DGENRE=
TTITLE0=Nina Simone - Aint Got No - I Got Life
TTITLE1=Gerry and The Pacemakers - You'll Never Walk Alone
TTITLE2=Aretha Franklin - A Natural Woman
TTITLE3=The Throggs - Love Is All Around
TTITLE4=Dinah Washington - What A Difference A Day Made
TTITLE5=Mungo Jerry - In The Summertime
TTITLE6=Louis Armstrong - What A Wonderful World
TTITLE7=Sarah Vaughan - My Favourite Things
TTITLE8=Aretha Franklin - Think
TTITLE9=The Brotherhood Of Man - Without You
TTITLE10=Dinah Washington - Mad About The Boy
TTITLE11=Sam Cookie - Wonderful World
TTITLE12=Jackie Wilson - Reet Petite
TTITLE13=The Throggs - Wild Thing
EXTD=
EXTT0=
EXTT1=
EXTT2=
EXTT3=
EXTT4=
EXTT5=
EXTT6=
EXTT7=
EXTT8=
EXTT9=
EXTT10=
EXTT11=
EXTT12=
EXTT13=
PLAYORDER=
